<?xml version="1.0" standalone="no"?>
<!DOCTYPE svg PUBLIC "-//W3C//DTD SVG 20010904//EN"
 "http://www.w3.org/TR/2001/REC-SVG-20010904/DTD/svg10.dtd">
<svg version="1.0" xmlns="http://www.w3.org/2000/svg"
 width="512.000000pt" height="122.000000pt" viewBox="0 0 512.000000 122.000000"
 preserveAspectRatio="xMidYMid meet">

<g transform="translate(0.000000,122.000000) scale(0.100000,-0.100000)"
fill="#000000" stroke="none">
<path d="M30 605 l0 -585 1250 0 1250 0 0 585 0 585 -1250 0 -1250 0 0 -585z
m1530 349 c0 -75 3 -134 8 -132 65 34 91 40 146 35 81 -7 132 -43 171 -122 28
-57 30 -66 30 -180 -1 -101 -4 -127 -22 -165 -42 -90 -105 -131 -197 -131 -55
0 -101 13 -128 38 -17 15 -18 14 -18 -5 0 -21 -5 -22 -80 -22 l-80 0 0 403 c0
222 3 407 7 410 3 4 42 7 85 7 l78 0 0 -136z m-890 -211 c0 -278 -2 -312 -19
-349 -23 -49 -88 -107 -140 -122 -49 -15 -163 -15 -212 -1 -84 26 -148 110
-149 197 l0 42 85 0 c79 0 85 -1 85 -20 0 -29 26 -76 45 -84 41 -16 83 -6 109
25 l26 31 0 287 c0 158 3 291 7 294 3 4 42 7 85 7 l78 0 0 -307z m495 90 c98
-51 148 -141 148 -267 0 -100 -14 -153 -56 -208 -48 -64 -122 -98 -211 -98
-95 0 -135 13 -188 60 -54 47 -85 113 -94 201 -15 150 60 286 179 325 59 19
171 13 222 -13z m1191 -1 c22 -11 52 -32 67 -47 27 -28 53 -97 42 -115 -3 -6
-41 -10 -83 -10 -77 0 -77 1 -92 32 -30 64 -139 53 -140 -14 0 -22 37 -41 124
-62 125 -31 167 -62 187 -138 24 -89 -25 -171 -122 -203 -57 -19 -162 -21
-218 -4 -76 23 -151 106 -151 169 0 18 6 20 80 20 65 0 80 -3 80 -15 0 -9 11
-27 25 -40 43 -44 145 -30 145 19 0 33 -19 45 -109 71 -148 42 -201 91 -201
188 0 70 50 131 136 163 54 20 178 13 230 -14z"/>
<path d="M1605 708 c-40 -21 -45 -38 -45 -153 0 -103 2 -113 23 -133 48 -45
112 -36 147 20 23 38 28 162 9 217 -18 51 -86 76 -134 49z"/>
<path d="M989 705 c-74 -40 -80 -227 -10 -290 33 -29 94 -26 126 6 32 31 51
116 41 183 -14 92 -88 139 -157 101z"/>
<path d="M2640 625 l0 -386 78 3 77 3 3 163 2 162 150 0 150 0 0 -165 0 -165
80 0 80 0 0 385 0 386 -77 -3 -78 -3 -3 -152 -3 -153 -149 0 -150 0 0 155 0
155 -80 0 -80 0 0 -385z"/>
<path d="M3539 806 c-51 -18 -91 -49 -121 -93 -40 -60 -51 -106 -46 -207 3
-77 8 -99 32 -143 47 -86 120 -125 231 -126 111 0 188 45 238 138 19 34 22 56
22 150 0 103 -2 113 -29 163 -32 57 -79 98 -135 118 -46 17 -146 17 -192 0z
m167 -137 c34 -32 47 -82 42 -164 -7 -106 -43 -149 -121 -147 -70 2 -107 61
-107 169 0 76 26 143 63 161 32 17 95 7 123 -19z"/>
<path d="M4220 813 c-8 -3 -27 -14 -42 -24 -33 -24 -38 -24 -38 1 0 18 -7 20
-70 20 l-70 0 0 -390 0 -390 75 0 75 0 0 125 c0 69 2 125 4 125 3 0 21 -10 41
-22 44 -26 136 -28 181 -5 36 19 77 62 97 103 23 46 39 159 31 223 -14 120
-59 193 -136 225 -36 16 -118 20 -148 9z m86 -134 c52 -43 67 -188 28 -264
-33 -64 -112 -77 -165 -29 -17 15 -19 33 -19 139 0 125 4 141 45 164 24 14 90
8 111 -10z"/>
<path d="M4757 806 c-127 -47 -192 -182 -167 -342 6 -36 17 -79 25 -93 23 -45
100 -109 147 -122 106 -30 242 -3 301 59 l26 27 -39 42 c-33 35 -41 39 -51 27
-30 -36 -111 -57 -163 -43 -39 11 -82 54 -91 92 l-7 27 182 0 183 0 -6 80
c-10 121 -51 196 -132 238 -41 21 -160 26 -208 8z m142 -120 c28 -15 51 -53
51 -86 0 -19 -8 -20 -105 -20 -70 0 -105 4 -105 11 0 26 35 81 59 94 34 18 65
19 100 1z"/>
</g>
</svg>
