<?xml version="1.0" encoding="UTF-8"?>
<svg xmlns="http://www.w3.org/2000/svg" xmlns:xlink="http://www.w3.org/1999/xlink" width="500pt" height="500pt" viewBox="0 0 500 500" version="1.1">
<g id="surface1">
<path style=" stroke:none;fill-rule:nonzero;fill:rgb(22.75238%,15.696716%,19.604492%);fill-opacity:1;" d="M 178.757813 382.449219 C 177.714844 379.183594 173.859375 369.582031 172.433594 366.121094 C 171.601563 364.09375 163.996094 363.101563 163.984375 363.378906 C 163.851563 364.414063 164.042969 367.566406 163.996094 368.660156 C 163.941406 370.023438 163.996094 373.042969 165.996094 374.589844 C 166.125 377.113281 167.058594 380.699219 168.832031 385.027344 C 170.714844 389.617188 174.207031 391.742188 176.953125 391.085938 C 180.175781 390.3125 180.320313 387.347656 178.757813 382.449219 "/>
<path style=" stroke:none;fill-rule:nonzero;fill:rgb(22.75238%,15.696716%,19.604492%);fill-opacity:1;" d="M 123.207031 344.230469 C 121.4375 346.183594 119.449219 348.367188 117.632813 350.289063 C 115.175781 352.886719 112.277344 355.636719 109.617188 358.015625 C 106.355469 360.929688 106.109375 364.449219 111.453125 364.148438 C 120.097656 363.664063 122.117188 360.039063 126.113281 356.976563 C 126.671875 356.550781 127.597656 357.578125 129.785156 356.695313 C 132.5625 355.574219 132.898438 355.132813 132.898438 352.375 C 132.898438 350.617188 132.605469 347 131.808594 345.175781 L 131.894531 345.089844 C 132.316406 344.609375 125.566406 341.628906 123.207031 344.230469 "/>
<path style=" stroke:none;fill-rule:nonzero;fill:rgb(100%,57.226563%,0.392151%);fill-opacity:1;" d="M 121.546875 303.964844 C 122.351563 301.660156 122.863281 291.738281 121.273438 283.09375 C 119.125 271.433594 121.480469 253.261719 126.089844 244.78125 C 127.546875 242.097656 130.9375 237.179688 133.621094 235.175781 C 141.042969 241.253906 166.664063 240.222656 166.835938 240.421875 C 171.804688 246.152344 172.777344 249.117188 174.304688 252.726563 C 179.875 265.902344 177.425781 278.921875 174.628906 287.03125 C 172.761719 292.429688 167.8125 302.234375 169.046875 309.183594 C 170.164063 315.464844 172.9375 323.605469 174.027344 329.976563 C 176.050781 341.757813 172.292969 353.589844 172.433594 366.121094 C 169.246094 368.957031 166.550781 368.136719 163.960938 366.070313 C 163.960938 366.070313 155.046875 343.085938 154.433594 332.226563 C 154.152344 327.25 157.007813 313.046875 156.515625 310.035156 C 155.152344 301.738281 153.304688 299.890625 150.851563 290.152344 C 148.195313 279.617188 146.789063 271.390625 146.785156 271.285156 C 144.277344 287.03125 138.394531 293.320313 138.265625 301.1875 C 138.21875 304.109375 140.191406 312.800781 137.703125 320.238281 C 134.679688 329.285156 134.6875 336.832031 131.941406 345.214844 C 129.46875 348.046875 123.765625 346.980469 123.382813 344.308594 C 123.382813 335.128906 117.414063 315.808594 121.546875 303.964844 "/>
<path style=" stroke:none;fill-rule:nonzero;fill:rgb(100%,72.459412%,64.256287%);fill-opacity:1;" d="M 162.828125 189.519531 C 160.941406 191.296875 159.199219 192.523438 156.625 193.21875 C 153.835938 193.972656 147.875 203.144531 145.996094 200.457031 C 145.195313 199.308594 144.585938 192.53125 144.28125 191.164063 C 145.097656 190.792969 146.921875 186.152344 147.046875 185.460938 C 147.265625 184.246094 148.507813 183.125 148.296875 181.910156 C 148 180.21875 147.632813 178.476563 147.460938 176.738281 C 149.941406 175.390625 152.164063 173.546875 155.019531 172.875 C 156.585938 172.503906 158.757813 168.105469 160.222656 167.304688 C 159.234375 171.070313 160.46875 176.4375 160.90625 178.621094 C 161.414063 181.140625 161.804688 182.222656 163.578125 184.785156 C 162.953125 184.976563 163.496094 188.894531 162.828125 189.519531 "/>
<path style=" stroke:none;fill-rule:nonzero;fill:rgb(100%,100%,100%);fill-opacity:1;" d="M 129.765625 239.25 C 132.273438 234.328125 136.828125 231.777344 138.34375 226.378906 C 139.921875 220.75 138.167969 214.664063 136.527344 209.253906 C 136.34375 208.652344 136.839844 208.097656 137.425781 208.074219 C 147.527344 207.675781 156.519531 211.742188 166.132813 214.191406 L 166.277344 214.292969 C 166.453125 214.164063 166.617188 214.011719 166.800781 213.890625 C 167.074219 213.710938 167.484375 214.085938 167.273438 214.367188 C 164.570313 217.925781 162.277344 221.417969 161.640625 225.8125 C 161.820313 231.867188 171.210938 244.5 171.832031 247.316406 C 167.542969 252.074219 155.4375 255.644531 145.011719 252.074219 C 137.613281 250.136719 129.757813 244.546875 129.765625 239.25 "/>
<path style=" stroke:none;fill-rule:nonzero;fill:rgb(100%,57.226563%,0.392151%);fill-opacity:1;" d="M 134.027344 180.554688 C 131.902344 183.558594 117.183594 201.023438 112.5625 206.601563 C 113.390625 213.355469 122.605469 209.605469 119.902344 215.609375 C 121.824219 215.824219 123.625 215.273438 125.632813 213.867188 C 132.117188 209.3125 142.078125 200.320313 142.078125 200.320313 L 147.460938 176.738281 C 147.460938 176.738281 137.8125 175.203125 134.027344 180.554688 "/>
<path style=" stroke:none;fill-rule:nonzero;fill:rgb(100%,100%,100%);fill-opacity:1;" d="M 145.574219 190.179688 C 145.574219 190.179688 149.851563 193.398438 156.535156 192.214844 C 163.226563 191.03125 152.554688 210.847656 147.046875 208.046875 C 141.535156 205.242188 145.574219 190.179688 145.574219 190.179688 "/>
<path style=" stroke:none;fill-rule:nonzero;fill:rgb(100%,68.554688%,1.567078%);fill-opacity:1;" d="M 135.484375 191.164063 C 137.53125 187.316406 140.621094 183.335938 143.46875 180.09375 C 143.660156 179.878906 148.960938 181.960938 150.089844 180.535156 C 150.089844 182.105469 148.707031 184.738281 147.460938 188.375 C 146.617188 190.839844 144.042969 198.945313 145.507813 204.679688 C 151.199219 198.117188 162.136719 185.785156 163.578125 184.785156 C 165.625 186.757813 170.21875 188.890625 172.691406 190.378906 C 173.765625 191.027344 174.527344 193.199219 174.484375 193.808594 C 174.324219 195.972656 173.605469 207.527344 171.105469 211.578125 C 169.023438 214.160156 164.777344 218.007813 163.578125 222.84375 C 162.019531 229.121094 169.367188 239.820313 173.667969 247.847656 C 169.476563 251.195313 160.910156 258.023438 152.097656 258.023438 C 149.121094 258.023438 146.183594 257.53125 143.382813 256.730469 C 143.226563 253.503906 142.902344 247.097656 142.078125 245.230469 C 140.539063 248.304688 138.210938 251.207031 136.53125 254.121094 C 129.265625 250.679688 123.835938 246.035156 122.636719 244.808594 C 125.570313 239.230469 131.527344 232.546875 134.027344 222.703125 C 135.757813 215.898438 131.585938 205.933594 131.25 203.414063 C 130.554688 198.203125 134.003906 193.945313 135.484375 191.164063 "/>
<path style=" stroke:none;fill-rule:nonzero;fill:rgb(100%,57.226563%,0.392151%);fill-opacity:1;" d="M 147.730469 178.9375 C 144.585938 182.328125 141.160156 187.492188 141.160156 187.492188 C 141.160156 187.492188 142.710938 190.382813 144.585938 192.183594 C 141.617188 193.355469 139.148438 195.859375 139.148438 195.859375 L 145.507813 204.679688 C 145.507813 204.679688 147.25 191.664063 148.605469 186.199219 C 149.957031 180.738281 150.742188 178.9375 150.742188 178.9375 C 150.742188 178.9375 148.425781 178.644531 147.730469 178.9375 "/>
<path style=" stroke:none;fill-rule:nonzero;fill:rgb(100%,57.226563%,0.392151%);fill-opacity:1;" d="M 163.195313 182.609375 C 163.195313 182.609375 158.125 186.582031 154.960938 189.960938 C 148.5625 196.796875 145.507813 204.679688 145.507813 204.679688 L 157.859375 200.003906 C 157.859375 200.003906 157.429688 197.078125 155.59375 194.824219 C 159.425781 194.742188 168.09375 190.476563 167.660156 187.378906 C 167.226563 184.277344 163.195313 182.609375 163.195313 182.609375 "/>
<path style=" stroke:none;fill-rule:nonzero;fill:rgb(100%,78.90625%,71.289063%);fill-opacity:1;" d="M 137.757813 163.40625 C 137.914063 159.625 138.734375 154.875 141.640625 152.175781 C 144.515625 149.511719 149.449219 149.246094 153.179688 149.507813 C 158.964844 149.914063 163.035156 156.308594 162.011719 163.707031 C 161.066406 170.539063 156.503906 181.066406 148.886719 182.492188 C 140.410156 184.082031 137.515625 169.15625 137.757813 163.40625 "/>
<path style=" stroke:none;fill-rule:nonzero;fill:rgb(16.868591%,9.423828%,13.330078%);fill-opacity:1;" d="M 156.117188 127.015625 C 157.828125 125.582031 159.800781 125.398438 161.328125 127.175781 C 161.792969 127.714844 162.128906 128.316406 162.363281 128.953125 C 164.054688 126.019531 166.617188 123.601563 169.816406 124.746094 C 173.527344 126.078125 173.429688 129.691406 171.933594 132.628906 C 173.292969 132.632813 174.664063 133.015625 175.503906 133.710938 C 176.75 134.738281 176.832031 136.269531 175.835938 137.523438 C 175.554688 137.875 175.117188 138.238281 174.636719 138.582031 C 176.34375 140.375 176.195313 144.347656 173.917969 146.03125 C 169.960938 148.960938 161.808594 146.738281 158.691406 143.152344 C 158.546875 143.183594 158.398438 143.175781 158.289063 143.050781 C 155.976563 140.34375 155.160156 136.964844 154.589844 133.511719 C 154.132813 130.757813 153.832031 128.925781 156.117188 127.015625 "/>
<path style=" stroke:none;fill-rule:nonzero;fill:rgb(100%,72.068787%,23.143005%);fill-opacity:1;" d="M 154.183594 143.480469 C 154.183594 143.480469 158.160156 138.835938 163.296875 140.734375 C 168.433594 142.632813 164.53125 150.773438 164.53125 150.773438 L 154.183594 143.480469 "/>
<path style=" stroke:none;fill-rule:nonzero;fill:rgb(22.75238%,15.696716%,19.604492%);fill-opacity:1;" d="M 143.402344 142.480469 C 146.074219 142.601563 148.4375 144.015625 151.171875 143.652344 C 153.488281 143.34375 156.320313 143.425781 158.660156 143.855469 C 168.648438 145.6875 169.582031 159.472656 167.242188 165.9375 C 165.839844 169.816406 162.167969 173.765625 159.984375 175.800781 C 159.984375 171.019531 155.925781 162.136719 153.238281 160.519531 C 149.804688 158.453125 141.808594 157.601563 138.199219 158.925781 C 132.65625 152.402344 134.128906 142.050781 143.402344 142.480469 "/>
<path style=" stroke:none;fill-rule:nonzero;fill:rgb(100%,78.90625%,71.289063%);fill-opacity:1;" d="M 154.992188 166.019531 C 154.992188 166.019531 157.449219 162.046875 159.234375 164.503906 C 161.019531 166.960938 159.347656 171.984375 157.113281 171.875 C 154.878906 171.761719 154.992188 166.019531 154.992188 166.019531 "/>
<path style=" stroke:none;fill-rule:nonzero;fill:rgb(100%,57.226563%,0.392151%);fill-opacity:1;" d="M 153.261719 234.039063 L 151.546875 238.679688 C 151.546875 238.679688 154.78125 240.1875 157.382813 241.296875 C 161.304688 242.964844 164.925781 243.320313 164.925781 243.320313 L 165.796875 239.515625 C 165.796875 239.515625 158.808594 236.941406 153.261719 234.039063 "/>
<path style=" stroke:none;fill-rule:nonzero;fill:rgb(100%,100%,100%);fill-opacity:1;" d="M 145.519531 208.089844 C 145.492188 208.886719 144.914063 209.515625 144.230469 209.488281 C 143.546875 209.464844 143.015625 208.800781 143.046875 208.003906 C 143.074219 207.203125 143.652344 206.578125 144.335938 206.601563 C 145.019531 206.628906 145.550781 207.292969 145.519531 208.089844 "/>
<path style=" stroke:none;fill-rule:nonzero;fill:rgb(100%,100%,100%);fill-opacity:1;" d="M 145.570313 223.058594 C 145.542969 223.855469 144.964844 224.484375 144.28125 224.460938 C 143.597656 224.433594 143.066406 223.769531 143.097656 222.972656 C 143.125 222.175781 143.703125 221.546875 144.386719 221.570313 C 145.070313 221.597656 145.601563 222.261719 145.570313 223.058594 "/>
<path style=" stroke:none;fill-rule:nonzero;fill:rgb(100%,100%,100%);fill-opacity:1;" d="M 143.695313 238.722656 C 143.667969 239.523438 143.089844 240.148438 142.40625 240.125 C 141.722656 240.097656 141.191406 239.433594 141.222656 238.636719 C 141.25 237.839844 141.828125 237.214844 142.511719 237.238281 C 143.195313 237.261719 143.726563 237.925781 143.695313 238.722656 "/>
<path style=" stroke:none;fill-rule:nonzero;fill:rgb(100%,61.521912%,15.281677%);fill-opacity:1;" d="M 131.40625 229.898438 C 131.40625 229.898438 133.382813 229.828125 135.804688 229.382813 C 135.296875 231.503906 134.4375 233.628906 134.4375 233.628906 L 129.53125 233.628906 L 131.40625 229.898438 "/>
<path style=" stroke:none;fill-rule:nonzero;fill:rgb(100%,57.226563%,0.392151%);fill-opacity:1;" d="M 172.691406 190.378906 C 167.101563 196.1875 163.371094 201.582031 162.847656 209.488281 C 162.617188 212.929688 162.167969 217.804688 167.085938 216.414063 C 169.699219 222.363281 171.765625 230.394531 172.65625 235.175781 C 175.925781 237.667969 178.96875 244.035156 179.753906 243.394531 C 182.871094 240.863281 185.019531 240.480469 185.964844 235.175781 C 187.425781 226.988281 182.234375 213.914063 180.96875 206.707031 C 187.011719 195.96875 176.679688 190.640625 172.691406 190.378906 "/>
<path style=" stroke:none;fill-rule:nonzero;fill:rgb(78.90625%,89.451599%,100%);fill-opacity:1;" d="M 91.070313 234.632813 L 149.109375 268.144531 L 149.109375 217.636719 L 91.070313 184.128906 L 91.070313 234.632813 "/>
<path style=" stroke:none;fill-rule:nonzero;fill:rgb(100%,57.226563%,0.392151%);fill-opacity:1;" d="M 173.246094 228.597656 C 165.636719 231.132813 153.929688 241.480469 153.929688 241.480469 L 153.929688 249.527344 C 153.929688 249.527344 170.847656 248.558594 175.746094 246.105469 C 180.648438 243.652344 183.941406 238.894531 183.941406 238.894531 C 183.941406 238.894531 179.300781 226.578125 173.246094 228.597656 "/>
<path style=" stroke:none;fill-rule:nonzero;fill:rgb(100%,78.90625%,71.289063%);fill-opacity:1;" d="M 149.136719 242.308594 C 146.769531 241.277344 143.277344 240.332031 141.21875 239.675781 C 138.789063 238.902344 140.3125 242.308594 140.3125 242.308594 C 140.3125 242.308594 139.027344 241.789063 138.742188 243.03125 C 138.382813 244.585938 140.210938 245.609375 140.210938 245.609375 C 140.210938 245.609375 138.695313 246.382813 139.882813 248.191406 C 140.6875 249.410156 146.324219 252.316406 148.5625 252.316406 C 150.800781 252.316406 157.460938 249.582031 158.671875 246.277344 C 159.882813 242.976563 157.382813 241.296875 153.023438 240.929688 C 151.558594 239.625 149.109375 238.679688 149.109375 238.679688 L 149.136719 242.308594 "/>
<path style=" stroke:none;fill-rule:nonzero;fill:rgb(100%,78.90625%,71.289063%);fill-opacity:1;" d="M 91.070313 206.601563 L 91.070313 208.046875 C 91.070313 208.046875 96.882813 212.390625 99.152344 214.660156 C 101.421875 216.929688 98.121094 216.886719 98.121094 216.886719 C 98.121094 216.886719 101.214844 220.644531 98.738281 220.230469 C 96.261719 219.816406 95.507813 219.050781 95.507813 219.050781 C 95.507813 219.050781 98.054688 220.851563 95.507813 221.570313 C 92.960938 222.292969 89.789063 219.863281 87.609375 217.484375 C 86.507813 216.285156 85.972656 214.976563 86.734375 214.140625 C 85.535156 212.027344 86.386719 210.8125 87 209.734375 C 89.0625 206.097656 91.070313 206.601563 91.070313 206.601563 "/>
<path style=" stroke:none;fill-rule:nonzero;fill:rgb(16.868591%,9.423828%,13.330078%);fill-opacity:1;" d="M 99.109375 197.429688 L 101.375 198.738281 L 101.375 212.121094 L 99.109375 210.8125 L 99.109375 197.429688 "/>
<path style=" stroke:none;fill-rule:nonzero;fill:rgb(16.868591%,9.423828%,13.330078%);fill-opacity:1;" d="M 106.828125 201.886719 L 109.152344 203.226563 L 111.773438 211.394531 L 112.761719 214.921875 L 112.820313 214.957031 C 112.730469 213.484375 112.546875 211.488281 112.546875 209.910156 L 112.546875 205.1875 L 114.699219 206.433594 L 114.699219 219.816406 L 112.378906 218.476563 L 109.753906 210.289063 L 108.769531 206.804688 L 108.707031 206.769531 C 108.796875 208.300781 108.984375 210.191406 108.984375 211.773438 L 108.984375 216.515625 L 106.828125 215.269531 L 106.828125 201.886719 "/>
<path style=" stroke:none;fill-rule:nonzero;fill:rgb(16.868591%,9.423828%,13.330078%);fill-opacity:1;" d="M 117.070313 207.800781 L 123.363281 211.433594 L 123.363281 213.980469 L 119.335938 211.652344 L 119.335938 214.34375 L 122.761719 216.320313 L 122.761719 218.847656 L 119.335938 216.867188 L 119.335938 219.949219 L 123.519531 222.363281 L 123.519531 224.90625 L 117.070313 221.1875 L 117.070313 207.800781 "/>
<path style=" stroke:none;fill-rule:nonzero;fill:rgb(16.868591%,9.423828%,13.330078%);fill-opacity:1;" d="M 125.515625 212.675781 L 131.808594 216.308594 L 131.808594 218.855469 L 127.78125 216.53125 L 127.78125 219.21875 L 131.207031 221.195313 L 131.207031 223.722656 L 127.78125 221.742188 L 127.78125 224.824219 L 131.964844 227.238281 L 131.964844 229.785156 L 125.515625 226.0625 L 125.515625 212.675781 "/>
<path style=" stroke:none;fill-rule:nonzero;fill:rgb(16.868591%,9.423828%,13.330078%);fill-opacity:1;" d="M 136.660156 230.050781 C 138.371094 231.039063 139.515625 230.589844 139.515625 227.386719 C 139.515625 224.1875 138.371094 222.539063 136.660156 221.554688 L 136.226563 221.304688 L 136.226563 229.800781 Z M 133.964844 217.554688 L 136.796875 219.191406 C 139.867188 220.960938 141.84375 224.132813 141.84375 228.730469 C 141.84375 233.328125 139.867188 234.347656 136.925781 232.648438 L 133.964844 230.9375 L 133.964844 217.554688 "/>
<path style=" stroke:none;fill-rule:nonzero;fill:rgb(16.868591%,9.423828%,13.330078%);fill-opacity:1;" d="M 106.632813 231.820313 L 108.175781 231.191406 C 108.546875 232.304688 109.070313 233.039063 109.578125 233.335938 C 110.398438 233.808594 110.828125 233.5 110.828125 231.714844 L 110.828125 223.027344 L 113.09375 224.339844 L 113.09375 233.269531 C 113.09375 235.855469 112.089844 237.394531 109.871094 236.109375 C 108.347656 235.230469 107.328125 233.84375 106.632813 231.820313 "/>
<path style=" stroke:none;fill-rule:nonzero;fill:rgb(16.868591%,9.423828%,13.330078%);fill-opacity:1;" d="M 121.738281 235.964844 C 121.738281 233.292969 120.878906 231.191406 119.503906 230.398438 C 118.128906 229.609375 117.265625 230.710938 117.265625 233.378906 C 117.265625 236.070313 118.128906 238.273438 119.503906 239.0625 C 120.878906 239.855469 121.738281 238.652344 121.738281 235.964844 Z M 114.941406 232.035156 C 114.941406 227.660156 116.792969 226.226563 119.503906 227.792969 C 122.21875 229.359375 124.070313 232.957031 124.070313 237.308594 C 124.070313 241.679688 122.21875 243.238281 119.503906 241.671875 C 116.792969 240.105469 114.941406 236.40625 114.941406 232.035156 "/>
<path style=" stroke:none;fill-rule:nonzero;fill:rgb(16.868591%,9.423828%,13.330078%);fill-opacity:1;" d="M 129.503906 244.859375 C 130.738281 245.570313 131.371094 245.363281 131.371094 244.128906 C 131.371094 242.960938 130.753906 242.132813 129.503906 241.410156 L 128.226563 240.671875 L 128.226563 244.121094 Z M 129.289063 239.050781 C 130.398438 239.6875 130.875 239.347656 130.875 238.382813 C 130.875 237.335938 130.367188 236.652344 129.304688 236.039063 L 128.226563 235.414063 L 128.226563 238.433594 Z M 125.960938 231.769531 L 129.398438 233.753906 C 131.476563 234.953125 133.097656 236.648438 133.097656 239.214844 C 133.097656 240.402344 132.601563 241.414063 131.785156 241.351563 L 131.785156 241.433594 C 132.804688 242.371094 133.59375 243.828125 133.59375 245.617188 C 133.59375 248.347656 131.863281 248.5625 129.691406 247.304688 L 125.960938 245.152344 L 125.960938 231.769531 "/>
<path style=" stroke:none;fill-rule:nonzero;fill:rgb(78.90625%,89.451599%,100%);fill-opacity:1;" d="M 219.683594 158.761719 C 219.140625 159.109375 222.90625 157.042969 227.101563 156.136719 C 229.054688 146.871094 233.945313 138.046875 236.515625 134.097656 C 238.558594 130.960938 245.347656 127.179688 249.824219 131.191406 C 254.601563 135.472656 255.707031 146.132813 252.042969 151.824219 C 246.792969 159.984375 243.917969 168.394531 235.984375 169.972656 C 233.214844 170.523438 226.488281 170.042969 223.328125 170.746094 C 220.929688 168.304688 218.457031 162.089844 219.683594 158.761719 "/>
<path style=" stroke:none;fill-rule:nonzero;fill:rgb(22.75238%,15.696716%,19.604492%);fill-opacity:1;" d="M 230.351563 306.660156 C 230.351563 306.660156 230.671875 309.339844 231.507813 312.140625 C 232.347656 314.941406 231.316406 318.847656 231.316406 318.847656 C 231.316406 318.847656 230.710938 320.566406 228.113281 321.078125 C 225.699219 321.554688 223.742188 320.972656 223.742188 320.972656 C 223.742188 320.972656 221.367188 323.84375 218.261719 326.042969 C 215.152344 328.242188 208.300781 329.949219 206.4375 329.664063 C 203.429688 329.207031 201.816406 326.863281 202.046875 325.347656 C 202.277344 323.835938 205.824219 319.648438 208.730469 317.835938 C 210.617188 316.65625 214.910156 312.671875 216.199219 311.285156 C 218.332031 308.992188 219.90625 306.457031 219.90625 306.457031 L 230.351563 306.660156 "/>
<path style=" stroke:none;fill-rule:nonzero;fill:rgb(16.868591%,9.423828%,13.330078%);fill-opacity:1;" d="M 232.59375 192.421875 C 232.59375 192.421875 223.882813 214.640625 222.53125 223.632813 C 221.183594 232.628906 217.128906 240.46875 215.503906 251.800781 C 213.878906 263.128906 215.242188 279.9375 216 291 C 216.300781 295.390625 215.90625 302.261719 215.058594 308.496094 C 222.144531 314.601563 230.648438 311.660156 233.484375 310.460938 C 234.183594 307.539063 236.632813 284.152344 237.371094 276.011719 C 238.109375 267.871094 236.183594 262.039063 236.183594 262.039063 C 236.183594 262.039063 248.050781 236.636719 252.210938 226.640625 C 256.371094 216.648438 253.539063 204.261719 253.539063 204.261719 L 232.59375 192.421875 "/>
<path style=" stroke:none;fill-rule:nonzero;fill:rgb(22.75238%,15.696716%,19.604492%);fill-opacity:1;" d="M 273.191406 331.828125 C 273.191406 331.828125 274.800781 337.792969 274.597656 341.246094 C 274.398438 344.699219 273.574219 345.523438 272.527344 346.6875 C 271.484375 347.851563 270.261719 347.351563 270.261719 347.351563 C 270.261719 347.351563 269.777344 354.472656 266.402344 357.351563 C 263.027344 360.226563 256.90625 360.5 254.09375 359.457031 C 251.285156 358.410156 253.132813 353.3125 255.882813 348.3125 C 258.636719 343.3125 262.144531 337.933594 263.019531 333.414063 C 269.753906 332.488281 273.191406 331.828125 273.191406 331.828125 "/>
<path style=" stroke:none;fill-rule:nonzero;fill:rgb(22.75238%,15.696716%,19.604492%);fill-opacity:1;" d="M 263.800781 201.628906 C 263.800781 201.628906 268.066406 207.660156 271.464844 218.269531 C 273.851563 225.730469 273.464844 243.621094 273.464844 243.621094 C 273.464844 243.621094 274.078125 261.238281 272.941406 267.332031 C 271.804688 273.421875 271.902344 274.660156 271.902344 274.660156 C 271.902344 274.660156 276.855469 284.03125 276.097656 301.304688 C 275.34375 318.574219 277.097656 333.355469 277.097656 333.355469 C 277.097656 333.355469 272.933594 339.902344 268.476563 339.910156 C 258.683594 339.933594 256.695313 334.660156 256.695313 334.660156 C 256.695313 334.660156 254.078125 300.953125 251.332031 292.617188 C 248.589844 284.285156 247.578125 274.675781 247.578125 274.675781 L 241.972656 233.617188 C 241.972656 233.617188 230.871094 226.371094 236.558594 208.101563 C 240.121094 196.660156 263.800781 201.628906 263.800781 201.628906 "/>
<path style=" stroke:none;fill-rule:nonzero;fill:rgb(27.830505%,20.776367%,24.705505%);fill-opacity:1;" d="M 278.554688 158.328125 C 277.691406 153.949219 277.085938 150.835938 273.722656 147.808594 C 267.113281 141.863281 253.078125 134.824219 245.203125 135.960938 C 239.507813 140.492188 235.28125 143.9375 233.226563 149.375 C 231.367188 154.292969 229.855469 158.101563 229.855469 166.125 C 229.855469 181.664063 227.21875 199.121094 225.890625 205.003906 C 226.957031 207.019531 230.359375 210.757813 231.847656 212.261719 C 233.390625 211.316406 234.636719 209.257813 236.558594 208.101563 C 238.371094 212.59375 240.175781 216.46875 241.757813 216.707031 C 252.269531 218.292969 270.773438 215.453125 272.101563 212.261719 C 271.308594 201.957031 273.171875 188.285156 277.496094 176.625 C 279.804688 170.390625 279.90625 165.1875 278.554688 158.328125 "/>
<path style=" stroke:none;fill-rule:nonzero;fill:rgb(100%,72.459412%,64.256287%);fill-opacity:1;" d="M 247.710938 131.058594 C 247.710938 131.058594 248.847656 138.585938 246.089844 141.191406 C 243.332031 143.796875 243.3125 149.152344 248.832031 150.953125 C 255.527344 153.136719 260.253906 148.308594 264.421875 144.988281 C 262.621094 141.167969 261.738281 141.191406 261.738281 130.472656 C 261.738281 121.753906 247.710938 131.058594 247.710938 131.058594 "/>
<path style=" stroke:none;fill-rule:nonzero;fill:rgb(78.90625%,89.451599%,100%);fill-opacity:1;" d="M 255.074219 152.289063 C 250.601563 156.136719 246.4375 166.773438 243.414063 170.933594 C 240.394531 175.097656 237.597656 176.617188 236.453125 171.9375 C 234.992188 165.953125 237.023438 151.476563 241.378906 145.847656 C 243.269531 147.089844 244.710938 149.976563 247.269531 150.78125 C 250.882813 151.914063 254.324219 149.972656 255.074219 152.289063 "/>
<path style=" stroke:none;fill-rule:nonzero;fill:rgb(98.826599%,16.088867%,16.088867%);fill-opacity:1;" d="M 244.269531 157.003906 C 244.269531 157.003906 243.726563 164.386719 243.453125 169.621094 C 243.441406 169.882813 243.429688 170.339844 243.414063 170.933594 C 241.773438 173.335938 239.992188 175.648438 238.183594 177.957031 C 237.546875 175.980469 236.957031 173.96875 236.453125 171.9375 C 236.5625 171.398438 236.660156 170.90625 236.753906 170.476563 C 238.203125 163.46875 239.273438 160.183594 240.1875 156.160156 C 239.273438 152.441406 241.234375 148.214844 241.234375 148.214844 C 243.089844 146.871094 249.140625 149.136719 248.832031 150.953125 C 248.183594 154.777344 244.269531 157.003906 244.269531 157.003906 "/>
<path style=" stroke:none;fill-rule:nonzero;fill:rgb(61.914063%,79.296875%,94.921875%);fill-opacity:1;" d="M 261.980469 137.613281 C 261.980469 137.613281 260.6875 142.160156 257.230469 144.765625 C 253.054688 147.910156 245.203125 148.425781 245.203125 150.570313 C 247.480469 150.570313 247.925781 150.703125 247.925781 152.347656 C 247.925781 155.429688 248.832031 156.136719 248.832031 156.136719 C 248.832031 156.136719 254.5 154.519531 258.582031 152.820313 C 263.699219 150.6875 266.023438 143.613281 266.023438 143.613281 C 266.023438 143.613281 265.023438 137.328125 261.980469 137.613281 "/>
<path style=" stroke:none;fill-rule:nonzero;fill:rgb(22.75238%,15.696716%,19.604492%);fill-opacity:1;" d="M 252.816406 194.828125 L 266.761719 203.824219 L 264.421875 206.464844 L 250.601563 197.769531 L 252.816406 194.828125 "/>
<path style=" stroke:none;fill-rule:nonzero;fill:rgb(61.914063%,79.296875%,94.921875%);fill-opacity:1;" d="M 245.203125 137.847656 C 245.203125 137.847656 241.886719 141.453125 240.464844 143.109375 C 239.042969 144.765625 239.871094 147.824219 239.160156 149.195313 C 238.453125 150.570313 238.136719 151.5 238.136719 151.5 C 238.136719 151.5 241.097656 150.902344 241.667969 149.195313 C 242.242188 147.492188 245.203125 150.570313 245.203125 150.570313 L 247.292969 148.851563 C 247.292969 148.851563 244.136719 146.832031 245.203125 144.675781 C 246.269531 142.519531 248.042969 139.675781 248.042969 139.675781 L 245.203125 137.847656 "/>
<path style=" stroke:none;fill-rule:nonzero;fill:rgb(100%,78.90625%,71.289063%);fill-opacity:1;" d="M 259.832031 112.503906 C 255.683594 107.914063 244.75 106.027344 240.828125 112.753906 C 237.882813 117.8125 237.757813 126.820313 238.558594 130.960938 C 240.238281 139.648438 247.371094 144.824219 255.589844 138.148438 C 263.429688 131.777344 266.984375 120.421875 259.832031 112.503906 "/>
<path style=" stroke:none;fill-rule:nonzero;fill:rgb(22.75238%,15.696716%,19.604492%);fill-opacity:1;" d="M 239.214844 109.296875 C 242.648438 105.304688 243.382813 104.082031 248.042969 102.878906 C 253.4375 101.488281 266.75 105.703125 264.421875 114.554688 C 270.578125 117.476563 268.679688 124.308594 267.074219 127.085938 C 265.445313 129.910156 261.789063 135.503906 261.789063 135.503906 C 261.789063 135.503906 258.328125 131.304688 257.226563 120.140625 C 254.621094 122.363281 248.042969 123.445313 244.269531 118.46875 C 238.691406 119.179688 233.378906 116.40625 233.332031 114.808594 C 233.332031 114.808594 236.257813 112.730469 239.214844 109.296875 "/>
<path style=" stroke:none;fill-rule:nonzero;fill:rgb(100%,78.90625%,71.289063%);fill-opacity:1;" d="M 255.550781 125.75 C 255.550781 125.75 257.949219 122.117188 260.078125 124.882813 C 262.210938 127.644531 257.839844 130.328125 257.839844 130.328125 L 255.550781 125.75 "/>
<path style=" stroke:none;fill-rule:nonzero;fill:rgb(78.90625%,89.451599%,100%);fill-opacity:1;" d="M 277.402344 194.0625 C 271.234375 187.84375 264.675781 173.125 263.699219 168.835938 C 262.136719 161.964844 262.921875 155.765625 266.761719 150.867188 C 270.722656 145.820313 272.246094 143.855469 278.726563 149.003906 C 286.328125 155.039063 286.679688 159.839844 288.742188 169.328125 C 289.367188 172.207031 296.691406 186.015625 294.667969 193.128906 C 294.667969 197.570313 289.488281 198.78125 284.761719 200.648438 C 281.902344 201.777344 280.226563 196.910156 277.402344 194.0625 "/>
<path style=" stroke:none;fill-rule:nonzero;fill:rgb(100%,78.90625%,71.289063%);fill-opacity:1;" d="M 240.1875 134.390625 C 240.1875 134.390625 242.0625 133.65625 243.089844 131.535156 C 243.726563 133.683594 247.269531 135.503906 247.269531 135.503906 C 247.269531 135.503906 244.917969 138.003906 243.089844 136.992188 C 241.261719 135.980469 240.1875 134.390625 240.1875 134.390625 "/>
<path style=" stroke:none;fill-rule:nonzero;fill:rgb(100%,78.90625%,71.289063%);fill-opacity:1;" d="M 219.460938 159.191406 C 215.332031 159.054688 198.335938 166.796875 198.335938 166.796875 L 199.472656 173.0625 C 199.472656 173.0625 221.125 173.570313 223.773438 171.570313 C 226.425781 169.570313 227.414063 159.457031 219.460938 159.191406 "/>
<path style=" stroke:none;fill-rule:nonzero;fill:rgb(61.914063%,79.296875%,94.921875%);fill-opacity:1;" d="M 216.136719 159.691406 C 216.136719 159.691406 220.84375 152.054688 225.890625 156.863281 C 228.085938 158.960938 229.527344 161.007813 229.949219 162.882813 C 229.855469 166.125 229.324219 168.84375 229.742188 171.960938 C 227.777344 173.792969 218.453125 172.246094 218.453125 172.246094 C 218.453125 172.246094 224.964844 169.429688 223.6875 165.175781 C 222.855469 162.398438 221.296875 159.875 219.460938 159.191406 C 217.910156 159.605469 216.136719 159.691406 216.136719 159.691406 "/>
<path style=" stroke:none;fill-rule:nonzero;fill:rgb(100%,68.554688%,1.567078%);fill-opacity:1;" d="M 196.867188 201.40625 L 254.910156 234.914063 L 254.910156 184.40625 L 196.867188 150.898438 L 196.867188 201.40625 "/>
<path style=" stroke:none;fill-rule:nonzero;fill:rgb(16.868591%,9.423828%,13.330078%);fill-opacity:1;" d="M 211.015625 181.109375 L 211.015625 163.453125 L 213.03125 164.617188 L 213.03125 182.273438 L 211.015625 181.109375 "/>
<path style=" stroke:none;fill-rule:nonzero;fill:rgb(16.868591%,9.423828%,13.330078%);fill-opacity:1;" d="M 217.855469 185.058594 L 217.855469 167.402344 L 219.871094 168.566406 L 219.871094 183.9375 L 222.421875 185.410156 L 222.421875 187.695313 L 217.855469 185.058594 "/>
<path style=" stroke:none;fill-rule:nonzero;fill:rgb(16.868591%,9.423828%,13.330078%);fill-opacity:1;" d="M 225.558594 186.765625 C 225.671875 187.242188 225.914063 187.585938 226.28125 187.796875 C 226.644531 188.007813 226.886719 187.9375 227 187.585938 C 227.117188 187.234375 227.175781 186.550781 227.175781 185.535156 L 227.175781 177.308594 C 227.175781 176.472656 227.117188 175.828125 227 175.375 C 226.882813 174.921875 226.648438 174.59375 226.308594 174.398438 C 225.964844 174.199219 225.722656 174.253906 225.585938 174.558594 C 225.445313 174.863281 225.378906 175.429688 225.378906 176.257813 L 225.378906 184.496094 C 225.378906 185.535156 225.4375 186.289063 225.558594 186.765625 Z M 228.507813 190.136719 C 228.046875 190.71875 227.308594 190.71875 226.292969 190.128906 C 225.277344 189.542969 224.53125 188.6875 224.058594 187.558594 C 223.582031 186.433594 223.347656 185.011719 223.347656 183.292969 L 223.347656 175.214844 C 223.347656 171.980469 224.339844 170.933594 226.316406 172.078125 C 227.34375 172.667969 228.078125 173.503906 228.527344 174.585938 C 228.976563 175.667969 229.199219 177.003906 229.199219 178.597656 L 229.199219 186.675781 C 229.199219 188.398438 228.96875 189.554688 228.507813 190.136719 "/>
<path style=" stroke:none;fill-rule:nonzero;fill:rgb(16.868591%,9.423828%,13.330078%);fill-opacity:1;" d="M 230.765625 187.546875 L 230.765625 185.972656 L 232.675781 187.074219 L 232.675781 188.851563 C 232.675781 189.835938 232.738281 190.5625 232.863281 191.03125 C 232.992188 191.503906 233.226563 191.835938 233.570313 192.035156 C 233.917969 192.238281 234.148438 192.207031 234.261719 191.941406 C 234.375 191.679688 234.433594 191.175781 234.433594 190.433594 C 234.433594 189.691406 234.328125 188.988281 234.128906 188.320313 C 233.929688 187.652344 233.609375 186.890625 233.171875 186.039063 L 232.199219 184.128906 C 231.738281 183.230469 231.382813 182.367188 231.128906 181.539063 C 230.878906 180.710938 230.75 179.847656 230.75 178.949219 C 230.75 177.492188 230.960938 176.527344 231.382813 176.066406 C 231.804688 175.601563 232.53125 175.664063 233.558594 176.253906 C 234.585938 176.851563 235.28125 177.664063 235.648438 178.699219 C 236.007813 179.738281 236.191406 181.046875 236.191406 182.632813 L 236.191406 183.726563 L 234.332031 182.652344 L 234.332031 181.390625 C 234.332031 180.535156 234.273438 179.886719 234.164063 179.453125 C 234.054688 179.019531 233.84375 178.707031 233.53125 178.53125 C 233.21875 178.347656 232.996094 178.359375 232.855469 178.558594 C 232.714844 178.757813 232.644531 179.144531 232.644531 179.703125 C 232.644531 180.265625 232.71875 180.753906 232.859375 181.167969 C 233 181.585938 233.253906 182.160156 233.617188 182.894531 L 234.710938 185.097656 C 235.253906 186.199219 235.671875 187.242188 235.949219 188.210938 C 236.226563 189.183594 236.367188 190.144531 236.367188 191.101563 C 236.367188 192.753906 236.15625 193.851563 235.738281 194.402344 C 235.320313 194.949219 234.59375 194.925781 233.554688 194.324219 C 232.511719 193.722656 231.785156 192.863281 231.378906 191.746094 C 230.96875 190.632813 230.765625 189.234375 230.765625 187.546875 "/>
<path style=" stroke:none;fill-rule:nonzero;fill:rgb(16.868591%,9.423828%,13.330078%);fill-opacity:1;" d="M 238.519531 196.988281 L 238.519531 181.65625 L 236.96875 180.765625 L 236.96875 178.4375 L 242.019531 181.351563 L 242.019531 183.679688 L 240.527344 182.816406 L 240.527344 198.148438 L 238.519531 196.988281 "/>
<path style=" stroke:none;fill-rule:nonzero;fill:rgb(16.868591%,9.423828%,13.330078%);fill-opacity:1;" d="M 206.101563 200.902344 L 206.101563 183.242188 L 208.609375 184.691406 L 210.492188 198.679688 L 212.257813 186.796875 L 214.777344 188.253906 L 214.777344 205.910156 L 212.976563 204.871094 L 212.976563 198.289063 L 213.058594 192.296875 L 211.273438 203.804688 L 209.671875 202.882813 L 207.8125 189.265625 L 207.886719 195.351563 L 207.886719 201.929688 L 206.101563 200.902344 "/>
<path style=" stroke:none;fill-rule:nonzero;fill:rgb(16.868591%,9.423828%,13.330078%);fill-opacity:1;" d="M 218.066406 207.808594 L 218.066406 200.757813 L 215.847656 188.871094 L 217.773438 189.980469 L 219.082031 197.339844 L 219.113281 197.355469 L 220.28125 191.429688 L 222.199219 192.535156 L 220.085938 201.921875 L 220.085938 208.976563 L 218.066406 207.808594 "/>
<path style=" stroke:none;fill-rule:nonzero;fill:rgb(16.868591%,9.423828%,13.330078%);fill-opacity:1;" d="M 230.289063 213.886719 C 229.808594 214.394531 229.140625 214.402344 228.277344 213.902344 C 227.410156 213.402344 226.738281 212.667969 226.257813 211.691406 C 225.777344 210.714844 225.539063 209.558594 225.539063 208.222656 L 225.539063 205.070313 L 227.484375 206.195313 L 227.484375 209.214844 C 227.484375 210.191406 227.605469 210.855469 227.84375 211.207031 C 227.949219 211.359375 228.078125 211.480469 228.234375 211.574219 C 228.539063 211.746094 228.742188 211.699219 228.839844 211.417969 C 228.9375 211.140625 228.988281 210.644531 228.988281 209.921875 L 228.988281 196.457031 L 231.003906 197.621094 L 231.003906 210.953125 C 231.003906 212.398438 230.765625 213.378906 230.289063 213.886719 "/>
<path style=" stroke:none;fill-rule:nonzero;fill:rgb(16.868591%,9.423828%,13.330078%);fill-opacity:1;" d="M 235.003906 214.847656 C 235.117188 215.324219 235.359375 215.667969 235.730469 215.878906 C 236.09375 216.089844 236.335938 216.019531 236.445313 215.667969 C 236.5625 215.316406 236.621094 214.632813 236.621094 213.617188 L 236.621094 205.390625 C 236.621094 204.554688 236.5625 203.910156 236.445313 203.457031 C 236.328125 203.003906 236.09375 202.675781 235.757813 202.480469 C 235.410156 202.28125 235.167969 202.335938 235.03125 202.640625 C 234.894531 202.945313 234.824219 203.511719 234.824219 204.339844 L 234.824219 212.578125 C 234.824219 213.617188 234.882813 214.371094 235.003906 214.847656 Z M 237.953125 218.21875 C 237.496094 218.800781 236.753906 218.800781 235.734375 218.210938 C 234.722656 217.625 233.976563 216.769531 233.503906 215.640625 C 233.027344 214.515625 232.792969 213.09375 232.792969 211.375 L 232.792969 203.296875 C 232.792969 200.0625 233.785156 199.015625 235.761719 200.160156 C 236.789063 200.75 237.527344 201.585938 237.972656 202.667969 C 238.421875 203.75 238.648438 205.085938 238.648438 206.679688 L 238.648438 214.757813 C 238.648438 216.480469 238.414063 217.636719 237.953125 218.21875 "/>
<path style=" stroke:none;fill-rule:nonzero;fill:rgb(16.868591%,9.423828%,13.330078%);fill-opacity:1;" d="M 242.570313 219.867188 L 243.28125 220.28125 C 243.683594 220.511719 243.964844 220.488281 244.125 220.21875 C 244.285156 219.9375 244.363281 219.328125 244.363281 218.378906 L 244.363281 216.953125 C 244.363281 216.058594 244.300781 215.386719 244.171875 214.941406 C 244.039063 214.492188 243.785156 214.160156 243.417969 213.949219 L 242.570313 213.457031 Z M 242.570313 211.441406 L 243.316406 211.871094 C 243.65625 212.070313 243.886719 212.054688 243.992188 211.820313 C 244.101563 211.589844 244.15625 211.015625 244.15625 210.097656 L 244.15625 209.035156 C 244.148438 208.351563 244.082031 207.855469 243.945313 207.546875 C 243.8125 207.234375 243.574219 206.984375 243.246094 206.796875 L 242.570313 206.402344 Z M 246.140625 210.894531 C 246.140625 212.796875 245.753906 213.738281 244.980469 213.726563 C 245.929688 214.695313 246.398438 216.351563 246.398438 218.710938 L 246.398438 219.160156 C 246.386719 220.925781 246.15625 222.070313 245.703125 222.589844 C 245.246094 223.109375 244.507813 223.074219 243.480469 222.480469 L 240.554688 220.789063 L 240.554688 203.132813 L 243.417969 204.789063 C 244.40625 205.359375 245.109375 206.066406 245.519531 206.921875 C 245.929688 207.765625 246.136719 208.914063 246.140625 210.351563 L 246.140625 210.894531 "/>
<path style=" stroke:none;fill-rule:nonzero;fill:rgb(100%,78.90625%,71.289063%);fill-opacity:1;" d="M 283.113281 189.363281 C 277.121094 189.625 273.648438 194.046875 268.664063 199.21875 C 263.683594 204.390625 259.589844 204.949219 259.589844 204.949219 L 254.910156 203.007813 L 254.910156 206.472656 C 254.910156 206.472656 248.261719 202.445313 245.53125 204.011719 C 244.785156 204.4375 245.53125 205.664063 246.257813 206.464844 C 245.222656 206.546875 244.703125 207.957031 246.257813 209.347656 C 245.058594 209.757813 245.695313 210.695313 247.488281 212.042969 C 245.53125 212.460938 247.71875 215.226563 250.175781 217.160156 C 254.40625 220.488281 257.824219 218.707031 265.414063 213.777344 C 273.003906 208.84375 290.128906 202.710938 291.984375 199.425781 C 293.839844 196.140625 288.570313 189.125 283.113281 189.363281 "/>
<path style=" stroke:none;fill-rule:nonzero;fill:rgb(61.914063%,79.296875%,94.921875%);fill-opacity:1;" d="M 286.929688 182.507813 C 280.679688 179.703125 277.949219 182.226563 274.859375 185.910156 C 271.769531 189.59375 274.328125 193.460938 274.328125 193.460938 C 274.328125 193.460938 277.042969 190.101563 281.253906 191.636719 C 284.742188 192.90625 287.164063 196.210938 286.855469 201.933594 C 286.78125 203.316406 283.886719 204.570313 283.886719 204.570313 C 283.886719 204.570313 291.882813 206.40625 295.285156 200.648438 C 298.691406 194.886719 295.90625 186.53125 286.929688 182.507813 "/>
<path style=" stroke:none;fill-rule:nonzero;fill:rgb(100%,78.90625%,71.289063%);fill-opacity:1;" d="M 196.867188 165.175781 C 196.867188 165.175781 194.644531 165.335938 193.703125 166.902344 C 193.027344 168.035156 192.199219 169.746094 193.683594 171.203125 C 192.785156 171.464844 193.003906 173.265625 194.359375 175.378906 C 192.921875 177.480469 199.277344 183.210938 200.582031 182.089844 C 200.949219 181.773438 200.507813 180.40625 199.597656 179.222656 C 200.664063 179.796875 201.695313 179.667969 201.808594 179.386719 C 202.382813 177.957031 200.171875 176.5 200.171875 176.5 C 200.171875 176.5 202.113281 177.273438 202.828125 175.941406 C 203.546875 174.609375 200.734375 173.398438 200.734375 173.398438 C 200.734375 173.398438 204.339844 174.679688 203.410156 172.855469 C 202.808594 171.671875 198.5625 168.746094 196.867188 167.519531 C 196.867188 166.433594 196.867188 165.175781 196.867188 165.175781 "/>
<path style=" stroke:none;fill-rule:nonzero;fill:rgb(98.826599%,68.554688%,61.521912%);fill-opacity:1;" d="M 339.425781 214.246094 C 339.425781 214.246094 332.117188 227.105469 329.316406 239.152344 C 327.960938 244.988281 326.011719 254.941406 326.011719 263.835938 C 326.011719 273.972656 328.25 284.535156 331.015625 289.988281 C 333.777344 295.441406 365.78125 325.335938 369.425781 333.128906 C 369.574219 335.304688 365.449219 346.5 363.742188 351.160156 C 361.878906 356.257813 360.480469 363.164063 364.808594 362 C 372.003906 360.070313 376.003906 353.460938 376.292969 348.476563 C 376.664063 342.042969 382.859375 338.464844 381.765625 335.058594 C 380.378906 330.738281 379.785156 331.226563 378.789063 329.539063 C 373.847656 321.128906 374.054688 314.59375 368.050781 305.949219 C 361.199219 296.085938 346.496094 283.824219 346.496094 283.824219 C 346.496094 283.824219 353.257813 265.496094 356.273438 254.976563 C 359.289063 244.460938 357.703125 237.839844 357.703125 237.839844 L 339.425781 214.246094 "/>
<path style=" stroke:none;fill-rule:nonzero;fill:rgb(100%,78.90625%,71.289063%);fill-opacity:1;" d="M 372.210938 216.914063 C 372.007813 216.699219 352.960938 219.273438 350.328125 230.117188 C 346.203125 247.097656 338.273438 278.621094 337.070313 296.085938 C 336.648438 302.1875 337.070313 310.253906 338.539063 319.269531 C 339.800781 327 339.878906 345.242188 338.539063 350.023438 C 336.847656 356.066406 334.582031 369.53125 330.136719 374.621094 C 327.429688 377.714844 327.109375 379.648438 330.492188 380.289063 C 334.308594 381.019531 337.484375 380.769531 340.472656 378.195313 C 343.714844 375.402344 343.738281 370.390625 344.789063 366.605469 C 346.007813 362.226563 350.714844 362.136719 351.097656 357.589844 C 351.40625 353.964844 349.625 352.472656 348.226563 349.097656 C 351.585938 339.695313 354.589844 329.695313 355.835938 319.964844 C 356.820313 312.273438 356.589844 303.121094 352.398438 296.273438 C 356.945313 291.011719 362.03125 286.253906 366.3125 280.710938 C 371.132813 274.476563 375.019531 267.476563 377.394531 259.949219 C 381.761719 246.109375 382.578125 228.015625 372.210938 216.914063 "/>
<path style=" stroke:none;fill-rule:nonzero;fill:rgb(100%,78.90625%,71.289063%);fill-opacity:1;" d="M 353.542969 148.269531 C 353.542969 148.269531 345.378906 150.109375 343.097656 154.53125 C 341.90625 156.84375 339.910156 159.605469 335.351563 166.738281 C 330.113281 174.929688 330.6875 179.421875 333.742188 183.179688 C 334.671875 184.316406 337.597656 187.175781 337.597656 187.175781 C 337.597656 187.175781 337.6875 195.5 338.277344 200.597656 C 339.328125 209.609375 339.003906 221.953125 339.003906 221.953125 C 339.003906 221.953125 341.132813 234.65625 347.414063 235.558594 C 355.910156 236.78125 370.167969 219.492188 370.167969 219.492188 C 370.167969 219.492188 367.097656 208.082031 373.1875 196.691406 C 379.277344 185.300781 387.1875 176.863281 380.28125 168.425781 C 379.019531 166.886719 377.257813 163.59375 375.339844 161.929688 C 366.726563 154.460938 353.542969 148.269531 353.542969 148.269531 "/>
<path style=" stroke:none;fill-rule:nonzero;fill:rgb(29.417419%,34.104919%,66.601563%);fill-opacity:1;" d="M 375.339844 161.929688 C 375.339844 161.929688 369.007813 166.898438 367.691406 176.832031 C 366.375 186.765625 374.359375 194.566406 374.359375 194.566406 C 374.359375 194.566406 373.476563 200.585938 373.8125 206.632813 C 374.152344 212.679688 375.144531 218.726563 378.96875 226.933594 C 382.789063 235.140625 384.433594 248.964844 382.964844 259.761719 C 381.492188 270.558594 387.109375 283.085938 387.109375 283.085938 C 387.109375 283.085938 385.457031 286.378906 380.453125 288.1875 C 375.445313 289.996094 371.394531 288.269531 369.75 290.859375 C 368.105469 293.453125 364.917969 295.878906 359.679688 296.476563 C 354.445313 297.070313 349.519531 291.722656 346.503906 292.15625 C 343.484375 292.589844 337.703125 293.070313 333.332031 290.859375 C 327.375 287.84375 328.679688 283.15625 323.398438 282.871094 C 316.21875 282.476563 312.980469 279.636719 310.800781 276.824219 C 310.800781 276.824219 320.523438 256.761719 324.335938 245.21875 C 326.074219 239.953125 330.195313 231.625 332.972656 225.496094 C 335.753906 219.363281 338.832031 214.835938 338.648438 210.089844 C 338.277344 200.597656 337.597656 187.175781 337.597656 187.175781 C 337.597656 187.175781 332.316406 183.511719 331.425781 179.097656 C 329.984375 171.972656 335.351563 166.738281 335.351563 166.738281 C 335.351563 166.738281 344.023438 153.152344 347.480469 148.269531 C 349.703125 145.128906 360.679688 151.6875 368.164063 156.746094 C 372.316406 159.546875 375.339844 161.929688 375.339844 161.929688 "/>
<path style=" stroke:none;fill-rule:nonzero;fill:rgb(16.868591%,9.423828%,13.330078%);fill-opacity:1;" d="M 362.261719 125.71875 C 362.261719 125.71875 364.792969 119.085938 372.277344 118.371094 C 379.765625 117.65625 378.96875 123.976563 378.96875 123.976563 C 378.96875 123.976563 382.070313 120.824219 384.660156 125.71875 C 387.253906 130.613281 381.894531 135.566406 381.894531 135.566406 C 381.894531 135.566406 383.738281 136.828125 381.894531 141.0625 C 380.054688 145.300781 369.1875 141.0625 369.1875 141.0625 L 362.261719 125.71875 "/>
<path style=" stroke:none;fill-rule:nonzero;fill:rgb(98.826599%,68.554688%,61.521912%);fill-opacity:1;" d="M 359.519531 160.671875 C 363.910156 161.953125 367.171875 160.785156 370.175781 158.191406 C 369.953125 157.875 369.730469 157.554688 369.5 157.203125 C 367.730469 154.476563 368.085938 153.351563 368.265625 149.820313 C 368.414063 146.808594 367.78125 146.507813 367.757813 143.820313 C 363.496094 145.851563 357.675781 146.765625 353.304688 146.570313 C 353.164063 147.910156 352.789063 149.308594 352.121094 150.613281 C 351.789063 155.570313 354.753906 159.28125 359.519531 160.671875 "/>
<path style=" stroke:none;fill-rule:nonzero;fill:rgb(19.993591%,19.993591%,40.795898%);fill-opacity:1;" d="M 368.878906 156.140625 L 371.246094 158.890625 C 371.246094 158.890625 370.09375 161.929688 363.429688 162.253906 C 356.765625 162.578125 353.609375 160.136719 352.097656 158.148438 C 350.585938 156.160156 351.042969 152.507813 351.042969 152.507813 L 353.953125 151.453125 C 353.953125 151.453125 354.15625 155.132813 357.628906 156.867188 C 363.429688 159.769531 368.878906 156.140625 368.878906 156.140625 "/>
<path style=" stroke:none;fill-rule:nonzero;fill:rgb(100%,78.90625%,71.289063%);fill-opacity:1;" d="M 368.496094 143.820313 C 369.734375 140.292969 369.996094 134.53125 368.316406 130.992188 C 366.652344 127.496094 362.222656 125.449219 358.703125 124.324219 C 353.246094 122.582031 345.996094 127.585938 344.230469 134.746094 C 342.597656 141.363281 344.113281 152.066406 350.585938 156.160156 C 357.777344 160.714844 366.617188 149.183594 368.496094 143.820313 "/>
<path style=" stroke:none;fill-rule:nonzero;fill:rgb(22.75238%,15.696716%,19.604492%);fill-opacity:1;" d="M 370.9375 127.816406 C 367.722656 124.425781 360.933594 118.066406 352.097656 123.304688 C 346.503906 126.617188 344.585938 129.996094 344.585938 133.65625 C 347.992188 136.207031 353.757813 138.21875 362.261719 137.71875 C 363.054688 139.648438 365.664063 147.714844 368.265625 149.820313 C 370.339844 146.695313 373.292969 142.464844 373.726563 138.367188 C 374.089844 134.894531 373.351563 130.359375 370.9375 127.816406 "/>
<path style=" stroke:none;fill-rule:nonzero;fill:rgb(98.826599%,68.554688%,61.521912%);fill-opacity:1;" d="M 344.054688 135.628906 C 342.699219 132.898438 341.554688 130.476563 340.429688 127.996094 C 339.59375 126.148438 338.769531 124.273438 337.882813 122.191406 C 335.40625 116.382813 330.109375 98.433594 328.207031 90.019531 L 321.585938 90.019531 C 321.085938 95.960938 322.234375 104.421875 323.140625 110.066406 C 324.15625 116.398438 326.988281 126.105469 328.910156 132.578125 C 329.050781 133.039063 329.179688 133.472656 329.316406 133.925781 C 332.320313 143.96875 334.9375 151.953125 340.148438 159.164063 C 341.574219 157.347656 343.910156 155.535156 346.503906 151.800781 C 343.910156 145.078125 343.625 138.417969 344.054688 135.628906 "/>
<path style=" stroke:none;fill-rule:nonzero;fill:rgb(100%,78.90625%,71.289063%);fill-opacity:1;" d="M 362.261719 143.179688 C 362.261719 143.179688 366.34375 139.097656 367.816406 142.273438 C 369.292969 145.449219 365.605469 149.09375 365.605469 149.09375 L 362.261719 143.179688 "/>
<path style=" stroke:none;fill-rule:nonzero;fill:rgb(100%,78.90625%,71.289063%);fill-opacity:1;" d="M 403.09375 119.328125 C 398.753906 125.449219 393.449219 131.566406 390.273438 138.242188 C 389.976563 138.859375 388.085938 143.363281 386.425781 147.300781 C 385.675781 149.082031 384.972656 150.746094 384.484375 151.882813 C 383.605469 153.933594 382.328125 156.074219 380.878906 158.179688 C 376.710938 164.238281 371.121094 169.984375 369.5 172.292969 C 364.5 179.398438 370.519531 194.480469 379.675781 187.03125 C 385.488281 182.304688 388.945313 173.769531 391.429688 166.941406 L 391.507813 166.691406 C 392.472656 163.851563 393.253906 158.214844 395.542969 152.789063 L 395.597656 152.648438 C 398 147.03125 399.890625 145.84375 402.0625 139.453125 C 403.328125 135.730469 404.921875 129.734375 407.320313 125.445313 C 406.277344 123.238281 404.855469 121.222656 403.09375 119.328125 "/>
<path style=" stroke:none;fill-rule:nonzero;fill:rgb(98.826599%,68.554688%,61.521912%);fill-opacity:1;" d="M 378.96875 174.25 C 378.96875 174.25 373.816406 175.609375 370.175781 181.222656 C 368.421875 183.933594 372.46875 188.878906 375.359375 184.964844 C 378.25 181.054688 378.96875 174.25 378.96875 174.25 "/>
<path style=" stroke:none;fill-rule:nonzero;fill:rgb(19.993591%,19.993591%,40.795898%);fill-opacity:1;" d="M 351.222656 356.402344 C 351.273438 353.164063 348.707031 350.164063 348.707031 350.164063 C 348.554688 351.101563 347.429688 352.816406 346.636719 354.957031 C 343.613281 353.796875 337.757813 352.554688 337.757813 352.554688 L 337.269531 355.15625 L 346.027344 357.148438 C 345.992188 357.351563 345.941406 357.546875 345.914063 357.757813 C 345.738281 359.164063 345.605469 360.683594 345.507813 362 C 344.632813 363.917969 343.578125 366.480469 343.1875 368.441406 C 342.734375 370.710938 342.003906 373.226563 341.535156 374.757813 C 339.671875 372.570313 335.453125 369.804688 332.074219 370.589844 C 332.074219 370.589844 327.882813 375.953125 326.382813 378.746094 C 324.878906 381.535156 328.097656 383.898438 333.464844 382.394531 C 338.097656 381.097656 341.121094 379.03125 342.140625 377.441406 C 342.300781 377.191406 342.421875 376.945313 342.480469 376.726563 L 342.484375 376.539063 C 343.050781 375.015625 344.183594 371.847656 344.734375 369.40625 C 345.1875 367.398438 346.070313 365.359375 346.699219 364.054688 L 346.796875 363.960938 C 346.796875 366.886719 346.796875 371.085938 346.796875 372.304688 C 347.949219 373.164063 349.160156 372.304688 349.160156 372.304688 C 349.160156 372.304688 349.371094 369.085938 350.125 365.347656 C 350.703125 362.472656 351.507813 359.210938 351.222656 356.402344 "/>
<path style=" stroke:none;fill-rule:nonzero;fill:rgb(19.993591%,19.993591%,40.795898%);fill-opacity:1;" d="M 382.890625 336.972656 C 382.941406 333.738281 380.378906 330.738281 380.378906 330.738281 C 380.222656 331.675781 379.097656 333.386719 378.304688 335.53125 C 375.28125 334.367188 369.425781 333.128906 369.425781 333.128906 L 368.9375 335.726563 L 377.699219 337.71875 C 377.660156 337.921875 377.609375 338.121094 377.585938 338.328125 C 377.40625 339.738281 377.273438 341.257813 377.175781 342.574219 C 376.304688 344.492188 375.246094 347.050781 374.855469 349.011719 C 374.402344 351.28125 373.671875 353.800781 373.203125 355.328125 C 371.339844 353.144531 367.121094 350.375 363.742188 351.160156 C 363.742188 351.160156 359.550781 356.527344 358.050781 359.316406 C 356.546875 362.109375 359.765625 364.46875 365.132813 362.96875 C 369.765625 361.671875 372.789063 359.605469 373.808594 358.015625 C 373.96875 357.765625 374.089844 357.519531 374.148438 357.296875 L 374.152344 357.109375 C 374.71875 355.585938 375.851563 352.417969 376.402344 349.980469 C 376.859375 347.96875 377.738281 345.933594 378.367188 344.625 L 378.464844 344.53125 C 378.464844 347.460938 378.464844 351.65625 378.464844 352.878906 C 379.617188 353.734375 380.828125 352.878906 380.828125 352.878906 C 380.828125 352.878906 381.039063 349.65625 381.792969 345.917969 C 382.371094 343.046875 383.179688 339.785156 382.890625 336.972656 "/>
<path style=" stroke:none;fill-rule:nonzero;fill:rgb(23.535156%,29.80957%,59.959412%);fill-opacity:1;" d="M 354.242188 193.109375 C 358.855469 193.109375 363.429688 189.8125 363.429688 189.8125 C 363.429688 189.8125 361.988281 196.34375 354.386719 196.375 C 347.046875 196.40625 344.585938 190.867188 344.585938 190.867188 C 344.585938 190.867188 348.953125 193.109375 354.242188 193.109375 "/>
<path style=" stroke:none;fill-rule:nonzero;fill:rgb(23.535156%,29.80957%,59.959412%);fill-opacity:1;" d="M 371.246094 231.6875 C 371.246094 231.6875 375.878906 241.1875 375.664063 249.828125 C 375.445313 258.464844 376.09375 267.105469 376.09375 274.445313 C 376.09375 281.789063 377.632813 288.898438 377.632813 288.898438 C 377.632813 288.898438 375.65625 289.011719 373.8125 289.234375 C 371.972656 289.453125 369.75 290.859375 369.75 290.859375 C 369.75 290.859375 370.71875 274.015625 371.246094 261.273438 C 371.773438 248.53125 371.246094 231.6875 371.246094 231.6875 "/>
<path style=" stroke:none;fill-rule:nonzero;fill:rgb(23.535156%,29.80957%,59.959412%);fill-opacity:1;" d="M 353.417969 223.910156 C 353.417969 223.910156 353.269531 238.273438 351.800781 251.230469 C 350.328125 264.1875 349.855469 266.023438 349.746094 275.417969 C 349.667969 282.375 348.953125 292.675781 348.953125 292.675781 C 348.953125 292.675781 347.589844 292.046875 344.769531 292.363281 C 343.238281 292.53125 341.109375 292.675781 341.109375 292.675781 C 341.109375 292.675781 343.808594 269.804688 346.617188 253.390625 C 349.421875 236.976563 353.417969 223.910156 353.417969 223.910156 "/>
<path style=" stroke:none;fill-rule:nonzero;fill:rgb(23.535156%,29.80957%,59.959412%);fill-opacity:1;" d="M 339.921875 229.09375 C 339.921875 229.09375 336.464844 239.785156 333.980469 249.179688 C 331.496094 258.574219 328.882813 267.644531 328.03125 272.609375 C 327.179688 277.578125 326.011719 283.609375 326.011719 283.609375 C 326.011719 283.609375 324.695313 282.972656 323.398438 282.871094 C 322.101563 282.769531 320.800781 282.597656 320.800781 282.597656 C 320.800781 282.597656 324.046875 267.96875 326.855469 259.546875 C 329.664063 251.121094 332.363281 241.835938 335.167969 236.652344 C 337.976563 231.46875 339.921875 229.09375 339.921875 229.09375 "/>
<path style=" stroke:none;fill-rule:nonzero;fill:rgb(78.90625%,89.451599%,100%);fill-opacity:1;" d="M 409.722656 94.351563 L 312.550781 38.179688 L 312.550781 88.6875 L 409.722656 144.859375 L 409.722656 94.351563 "/>
<path style=" stroke:none;fill-rule:nonzero;fill:rgb(16.868591%,9.423828%,13.330078%);fill-opacity:1;" d="M 320.824219 80.191406 L 320.824219 55.296875 L 323.664063 56.941406 L 323.664063 81.832031 L 320.824219 80.191406 "/>
<path style=" stroke:none;fill-rule:nonzero;fill:rgb(16.868591%,9.423828%,13.330078%);fill-opacity:1;" d="M 330.46875 85.761719 L 330.46875 60.867188 L 332.691406 62.152344 L 336.652344 79.371094 L 336.449219 72.46875 L 336.449219 64.320313 L 339.007813 65.796875 L 339.007813 90.6875 L 336.988281 89.523438 L 332.929688 71.722656 L 333.085938 78.347656 L 333.085938 87.273438 L 330.46875 85.761719 "/>
<path style=" stroke:none;fill-rule:nonzero;fill:rgb(16.868591%,9.423828%,13.330078%);fill-opacity:1;" d="M 341.808594 92.308594 L 341.808594 67.414063 L 348.066406 71.027344 L 348.066406 74.296875 L 344.652344 72.320313 L 344.652344 79.566406 L 347.894531 81.4375 L 347.894531 84.632813 L 344.652344 82.761719 L 344.652344 90.683594 L 348.191406 92.726563 L 348.191406 95.996094 L 341.808594 92.308594 "/>
<path style=" stroke:none;fill-rule:nonzero;fill:rgb(16.868591%,9.423828%,13.330078%);fill-opacity:1;" d="M 350.464844 97.304688 L 350.464844 72.410156 L 356.722656 76.023438 L 356.722656 79.289063 L 353.304688 77.320313 L 353.304688 84.5625 L 356.550781 86.4375 L 356.550781 89.632813 L 353.304688 87.757813 L 353.304688 95.679688 L 356.851563 97.722656 L 356.851563 100.992188 L 350.464844 97.304688 "/>
<path style=" stroke:none;fill-rule:nonzero;fill:rgb(16.868591%,9.423828%,13.330078%);fill-opacity:1;" d="M 361.949219 100.996094 L 362.882813 101.535156 C 363.40625 101.835938 363.785156 101.828125 364.023438 101.511719 C 364.261719 101.195313 364.382813 100.4375 364.382813 99.230469 L 364.371094 86.933594 C 364.371094 85.640625 364.25 84.652344 364.015625 83.96875 C 363.777344 83.285156 363.367188 82.777344 362.785156 82.441406 L 361.949219 81.957031 Z M 359.109375 102.296875 L 359.109375 77.402344 L 363.296875 79.820313 C 364.667969 80.613281 365.664063 81.726563 366.28125 83.164063 C 366.902344 84.601563 367.210938 86.371094 367.210938 88.476563 L 367.222656 99.710938 C 367.222656 102.21875 366.914063 103.878906 366.289063 104.691406 C 365.667969 105.5 364.636719 105.488281 363.203125 104.660156 L 359.109375 102.296875 "/>
<path style=" stroke:none;fill-rule:nonzero;fill:rgb(16.868591%,9.423828%,13.330078%);fill-opacity:1;" d="M 379.6875 112.800781 C 379.019531 113.519531 378.070313 113.527344 376.851563 112.824219 C 375.632813 112.117188 374.683594 111.078125 374.007813 109.703125 C 373.332031 108.328125 372.992188 106.695313 372.992188 104.808594 L 372.992188 100.367188 L 375.742188 101.957031 L 375.742188 106.214844 C 375.742188 107.59375 375.910156 108.527344 376.238281 109.019531 C 376.390625 109.238281 376.570313 109.410156 376.789063 109.535156 C 377.226563 109.785156 377.511719 109.714844 377.648438 109.320313 C 377.78125 108.929688 377.851563 108.226563 377.851563 107.203125 L 377.851563 88.226563 L 380.695313 89.867188 L 380.695313 108.664063 C 380.695313 110.699219 380.359375 112.078125 379.6875 112.800781 "/>
<path style=" stroke:none;fill-rule:nonzero;fill:rgb(16.868591%,9.423828%,13.330078%);fill-opacity:1;" d="M 386.335938 114.15625 C 386.503906 114.828125 386.84375 115.3125 387.359375 115.609375 C 387.875 115.90625 388.214844 115.808594 388.382813 115.3125 C 388.539063 114.816406 388.621094 113.855469 388.621094 112.421875 L 388.621094 100.820313 C 388.621094 99.644531 388.539063 98.734375 388.375 98.097656 C 388.207031 97.460938 387.882813 96.996094 387.394531 96.71875 C 386.914063 96.441406 386.570313 96.515625 386.378906 96.945313 C 386.183594 97.375 386.085938 98.175781 386.085938 99.34375 L 386.085938 110.957031 C 386.085938 112.414063 386.167969 113.484375 386.335938 114.15625 Z M 390.503906 118.90625 C 389.847656 119.730469 388.808594 119.726563 387.375 118.898438 C 385.945313 118.074219 384.894531 116.863281 384.222656 115.277344 C 383.554688 113.6875 383.222656 111.683594 383.222656 109.261719 L 383.222656 97.875 C 383.222656 93.308594 384.621094 91.835938 387.410156 93.445313 C 388.855469 94.28125 389.894531 95.460938 390.527344 96.984375 C 391.160156 98.507813 391.476563 100.394531 391.476563 102.636719 L 391.476563 114.023438 C 391.476563 116.457031 391.148438 118.085938 390.503906 118.90625 "/>
<path style=" stroke:none;fill-rule:nonzero;fill:rgb(16.868591%,9.423828%,13.330078%);fill-opacity:1;" d="M 397.003906 121.234375 L 398.007813 121.8125 C 398.578125 122.140625 398.972656 122.109375 399.195313 121.722656 C 399.421875 121.332031 399.535156 120.46875 399.535156 119.128906 L 399.535156 117.121094 C 399.535156 115.859375 399.441406 114.910156 399.261719 114.28125 C 399.078125 113.652344 398.722656 113.1875 398.199219 112.886719 L 397.003906 112.195313 Z M 397.003906 109.351563 L 398.050781 109.957031 C 398.539063 110.238281 398.859375 110.214844 399.011719 109.886719 C 399.160156 109.5625 399.242188 108.753906 399.242188 107.460938 L 399.242188 105.960938 C 399.234375 104.996094 399.132813 104.292969 398.941406 103.859375 C 398.753906 103.421875 398.421875 103.070313 397.957031 102.800781 L 397.003906 102.25 Z M 402.039063 108.582031 C 402.039063 111.261719 401.496094 112.589844 400.40625 112.574219 C 401.738281 113.9375 402.402344 116.277344 402.402344 119.597656 L 402.402344 120.234375 C 402.386719 122.722656 402.058594 124.339844 401.421875 125.070313 C 400.78125 125.804688 399.734375 125.75 398.285156 124.914063 L 394.15625 122.53125 L 394.15625 97.636719 L 398.199219 99.972656 C 399.59375 100.777344 400.578125 101.777344 401.160156 102.976563 C 401.738281 104.175781 402.03125 105.789063 402.039063 107.816406 L 402.039063 108.582031 "/>
<path style=" stroke:none;fill-rule:nonzero;fill:rgb(98.826599%,68.554688%,61.521912%);fill-opacity:1;" d="M 312.550781 75.136719 C 312.550781 75.136719 314.796875 76.230469 316.976563 79.066406 C 319.160156 81.90625 316.105469 81.90625 316.105469 81.90625 C 316.105469 81.90625 319.207031 84.089844 317.765625 84.960938 C 316.324219 85.835938 315.347656 84.960938 315.347656 84.960938 C 315.347656 84.960938 319.597656 87.800781 316.761719 88.234375 C 313.921875 88.671875 309.773438 85.179688 309.339844 82.558594 C 308.902344 79.941406 308.335938 76.449219 309.273438 74.484375 C 310.210938 72.519531 312.550781 70.554688 312.550781 70.554688 L 312.550781 75.136719 "/>
<path style=" stroke:none;fill-rule:nonzero;fill:rgb(98.826599%,68.554688%,61.521912%);fill-opacity:1;" d="M 409.722656 122.378906 L 409.722656 127.179688 C 409.722656 127.179688 405.605469 127.835938 401.894531 127.179688 C 398.183594 126.523438 400.691406 130.375 400.691406 130.375 C 400.691406 130.375 398.511719 129.691406 399.398438 131.980469 C 399.71875 132.800781 402.113281 133.835938 402.113281 133.835938 C 402.113281 133.835938 399.160156 133.757813 401.125 136.070313 C 403.089844 138.378906 409.972656 139.074219 411.71875 136.675781 C 413.464844 134.273438 416.351563 125.425781 409.722656 122.378906 "/>
<path style=" stroke:none;fill-rule:nonzero;fill:rgb(22.75238%,15.696716%,19.604492%);fill-opacity:1;" d="M 302.230469 409.871094 C 302.230469 409.871094 302.554688 412.601563 303.410156 415.453125 C 304.261719 418.308594 303.214844 422.285156 303.214844 422.285156 C 303.214844 422.285156 302.597656 424.039063 299.953125 424.558594 C 297.488281 425.042969 295.496094 424.453125 295.496094 424.453125 C 295.496094 424.453125 293.074219 427.378906 289.910156 429.621094 C 286.746094 431.859375 279.761719 433.597656 277.863281 433.308594 C 274.800781 432.84375 273.15625 430.453125 273.394531 428.910156 C 273.628906 427.371094 277.238281 423.105469 280.199219 421.257813 C 282.125 420.054688 286.5 415.996094 287.8125 414.585938 C 289.984375 412.246094 291.589844 409.664063 291.589844 409.664063 L 302.230469 409.871094 "/>
<path style=" stroke:none;fill-rule:nonzero;fill:rgb(22.75238%,15.696716%,19.604492%);fill-opacity:1;" d="M 347.785156 433.101563 C 347.785156 433.101563 349.421875 439.179688 349.21875 442.699219 C 349.011719 446.21875 348.171875 447.054688 347.109375 448.242188 C 346.046875 449.429688 344.796875 448.917969 344.796875 448.917969 C 344.796875 448.917969 344.308594 456.171875 340.867188 459.105469 C 337.429688 462.035156 331.191406 462.316406 328.328125 461.25 C 325.464844 460.1875 327.347656 454.992188 330.148438 449.898438 C 332.953125 444.804688 336.527344 439.324219 337.421875 434.722656 C 344.28125 433.777344 347.785156 433.101563 347.785156 433.101563 "/>
<path style=" stroke:none;fill-rule:nonzero;fill:rgb(61.914063%,79.296875%,94.921875%);fill-opacity:1;" d="M 315.648438 227.21875 C 315.648438 227.21875 310.128906 230.078125 307.199219 233.878906 C 304.496094 237.386719 301.75 241.179688 300.71875 244.140625 C 297.894531 252.246094 294.40625 257.863281 294.40625 257.863281 C 294.40625 257.863281 272.105469 261.285156 268.820313 262.691406 C 265.535156 264.101563 269.441406 273.402344 269.441406 273.402344 C 269.441406 273.402344 297.5 276.257813 302.386719 272.632813 C 306.199219 269.804688 325.847656 233.878906 325.847656 233.878906 L 315.648438 227.21875 "/>
<path style=" stroke:none;fill-rule:nonzero;fill:rgb(26.660156%,46.655273%,82.8125%);fill-opacity:1;" d="M 306.417969 288.183594 C 306.417969 288.183594 297.546875 310.820313 296.171875 319.980469 C 294.796875 329.144531 292.035156 343.011719 290.378906 354.554688 C 288.722656 366.097656 288.746094 377.34375 289.515625 388.617188 C 289.820313 393.089844 291.457031 404.78125 290.59375 411.136719 C 291.566406 415.265625 301.246094 415.78125 302.394531 410.980469 C 303.105469 408.003906 310.539063 381.640625 311.289063 373.347656 C 312.039063 365.050781 310.082031 359.109375 310.082031 359.109375 C 310.082031 359.109375 322.167969 333.226563 326.40625 323.046875 C 330.644531 312.863281 327.761719 300.242188 327.761719 300.242188 L 306.417969 288.183594 "/>
<path style=" stroke:none;fill-rule:nonzero;fill:rgb(38.035583%,54.101563%,90.234375%);fill-opacity:1;" d="M 338.214844 297.5625 C 338.214844 297.5625 342.558594 303.707031 346.023438 314.515625 C 348.457031 322.117188 348.0625 340.347656 348.0625 340.347656 C 348.0625 340.347656 348.6875 358.296875 347.53125 364.503906 C 346.371094 370.710938 346.472656 371.96875 346.472656 371.96875 C 346.472656 371.96875 351.453125 386.847656 350.683594 404.441406 C 349.914063 422.039063 348.480469 434.660156 348.480469 434.660156 C 348.480469 434.660156 347.5 437.988281 342.980469 438.449219 C 338.863281 438.867188 335.859375 436.011719 335.859375 436.011719 C 335.859375 436.011719 328.308594 398.757813 325.515625 390.265625 C 322.71875 381.773438 321.6875 371.988281 321.6875 371.988281 L 315.976563 330.152344 C 315.976563 330.152344 304.664063 322.773438 310.460938 304.15625 C 314.09375 292.5 338.214844 297.5625 338.214844 297.5625 "/>
<path style=" stroke:none;fill-rule:nonzero;fill:rgb(78.90625%,89.451599%,100%);fill-opacity:1;" d="M 351.121094 250.007813 C 345.515625 238.863281 330.429688 230.828125 318.320313 232.578125 C 312.519531 237.199219 309.835938 240.289063 307.742188 245.828125 C 305.847656 250.835938 305.042969 256.761719 305.648438 261.992188 C 307.476563 277.71875 303.742188 293.027344 302.386719 299.019531 C 308.808594 305.738281 317.335938 310.089844 326.746094 311.722656 C 331.855469 312.605469 335.582031 310.6875 340.558594 308.84375 C 341.289063 308.574219 341.609375 308.078125 341.710938 307.332031 C 343.402344 294.621094 347.765625 283.96875 352.167969 272.085938 C 354.523438 265.734375 354.316406 256.367188 351.121094 250.007813 "/>
<path style=" stroke:none;fill-rule:nonzero;fill:rgb(100%,72.459412%,64.256287%);fill-opacity:1;" d="M 321.820313 225.660156 C 321.820313 225.660156 322.980469 233.328125 320.171875 235.984375 C 317.363281 238.640625 317.34375 244.097656 322.964844 245.929688 C 329.785156 248.15625 334.601563 243.238281 338.851563 239.851563 C 337.015625 235.960938 336.117188 235.984375 336.117188 225.066406 C 336.117188 216.179688 321.820313 225.660156 321.820313 225.660156 "/>
<path style=" stroke:none;fill-rule:nonzero;fill:rgb(61.914063%,79.296875%,94.921875%);fill-opacity:1;" d="M 347.078125 244.140625 C 347.078125 244.140625 353.246094 246.503906 357.640625 254.878906 C 361.902344 262.996094 367.308594 278.949219 368.828125 285.484375 C 370.882813 294.304688 370.105469 295.738281 368.632813 298.125 C 366.015625 302.371094 361.359375 306.578125 356.5625 309.496094 C 348.683594 314.292969 342.945313 314.683594 342.945313 314.683594 C 342.945313 314.683594 341.554688 313.640625 341.554688 304.699219 C 341.976563 304.289063 345.003906 301.808594 346.660156 300.214844 C 351.648438 295.410156 354.292969 292.625 354.292969 292.625 C 354.292969 292.625 348.214844 284.050781 342.253906 274.589844 C 334.1875 255.699219 347.078125 244.140625 347.078125 244.140625 "/>
<path style=" stroke:none;fill-rule:nonzero;fill:rgb(98.826599%,16.088867%,16.088867%);fill-opacity:1;" d="M 317.03125 246.617188 C 315.730469 245.050781 315.847656 242.722656 315.847656 242.722656 L 318.132813 243.34375 C 318.132813 243.34375 318.75 244.871094 318.921875 246.15625 C 318.921875 246.15625 320.660156 245.511719 321.429688 245.261719 C 323.523438 244.582031 323.371094 247.210938 323.371094 247.210938 C 323.371094 247.210938 321.671875 247.683594 320.183594 248.027344 C 320.011719 248.960938 319.691406 249.984375 319.265625 251.050781 C 318.894531 251.980469 317.949219 252.433594 317.140625 252.085938 C 315.882813 251.546875 315.617188 250.480469 315.847656 249.242188 C 315.960938 248.617188 316.578125 247.5625 317.03125 246.617188 "/>
<path style=" stroke:none;fill-rule:nonzero;fill:rgb(61.914063%,79.296875%,94.921875%);fill-opacity:1;" d="M 336.363281 232.339844 C 336.363281 232.339844 335.046875 236.972656 331.519531 239.628906 C 327.269531 242.832031 319.265625 243.355469 319.265625 245.539063 C 321.589844 245.539063 322.042969 245.675781 322.042969 247.351563 C 322.042969 250.488281 322.964844 251.210938 322.964844 251.210938 C 322.964844 251.210938 328.738281 249.566406 332.902344 247.832031 C 338.113281 245.660156 340.480469 238.449219 340.480469 238.449219 C 340.480469 238.449219 339.460938 232.046875 336.363281 232.339844 "/>
<path style=" stroke:none;fill-rule:nonzero;fill:rgb(61.914063%,79.296875%,94.921875%);fill-opacity:1;" d="M 319.265625 232.578125 C 319.265625 232.578125 315.886719 236.25 314.441406 237.941406 C 312.992188 239.628906 313.839844 242.742188 313.113281 244.140625 C 312.390625 245.539063 312.066406 246.488281 312.066406 246.488281 C 312.066406 246.488281 315.085938 245.878906 315.667969 244.140625 C 316.25 242.402344 319.265625 245.539063 319.265625 245.539063 L 321.398438 243.789063 C 321.398438 243.789063 318.179688 241.730469 319.265625 239.535156 C 320.351563 237.335938 322.164063 234.441406 322.164063 234.441406 L 319.265625 232.578125 "/>
<path style=" stroke:none;fill-rule:nonzero;fill:rgb(100%,78.90625%,71.289063%);fill-opacity:1;" d="M 334.171875 206.757813 C 329.945313 202.082031 318.804688 200.160156 314.8125 207.011719 C 311.808594 212.167969 311.683594 221.34375 312.496094 225.5625 C 314.210938 234.414063 321.476563 239.6875 329.851563 232.882813 C 337.835938 226.394531 341.460938 214.824219 334.171875 206.757813 "/>
<path style=" stroke:none;fill-rule:nonzero;fill:rgb(22.75238%,15.696716%,19.604492%);fill-opacity:1;" d="M 343.539063 215.214844 C 344.265625 210.726563 341.851563 207.429688 337.789063 207.335938 C 338.210938 203.929688 336.171875 200.570313 332.988281 198.929688 C 327.722656 196.210938 321.488281 198.171875 316.101563 199.6875 C 314.542969 198.960938 310.722656 196.652344 310.121094 198.628906 C 309.691406 200.046875 310.535156 201.445313 311.320313 202.605469 C 309.765625 202.3125 306.699219 200.996094 305.347656 202.027344 C 302.144531 204.46875 307.671875 208.816406 310.507813 210.109375 C 312.535156 211.035156 314.976563 211.640625 317.382813 211.675781 C 317.160156 211.984375 316.960938 212.304688 316.789063 212.636719 C 316.515625 213.171875 316.664063 213.773438 317.175781 214.109375 C 319.300781 215.5 323.175781 216.0625 325.671875 214.671875 C 325.71875 216.910156 326.441406 219.171875 328.207031 220.511719 C 329.007813 221.121094 330.664063 221.695313 332.109375 221.703125 C 332.492188 223.726563 334.335938 227.332031 336.117188 228.046875 C 338.273438 225.902344 343.011719 218.46875 343.539063 215.214844 "/>
<path style=" stroke:none;fill-rule:nonzero;fill:rgb(100%,78.90625%,71.289063%);fill-opacity:1;" d="M 329.792969 222.550781 C 329.792969 222.550781 332.234375 218.851563 334.40625 221.667969 C 336.578125 224.484375 332.125 227.21875 332.125 227.21875 L 329.792969 222.550781 "/>
<path style=" stroke:none;fill-rule:nonzero;fill:rgb(98.826599%,16.088867%,16.088867%);fill-opacity:1;" d="M 313.027344 259.824219 C 314.421875 253.683594 315.355469 252.144531 316.535156 250.488281 C 316.902344 249.972656 318.351563 250.476563 318.320313 251.105469 C 318.019531 257.339844 317.980469 261.578125 318.496094 271.585938 C 319.023438 281.84375 318.753906 289.175781 318.753906 289.175781 C 318.753906 289.175781 314.9375 293.328125 312.921875 294.140625 C 309.984375 289.585938 309.765625 284.636719 309.765625 284.636719 C 309.765625 284.636719 311.554688 266.3125 313.027344 259.824219 "/>
<path style=" stroke:none;fill-rule:nonzero;fill:rgb(100%,68.554688%,1.567078%);fill-opacity:1;" d="M 261.308594 299.265625 L 337.6875 343.363281 L 337.6875 290.378906 L 261.308594 246.28125 L 261.308594 299.265625 "/>
<path style=" stroke:none;fill-rule:nonzero;fill:rgb(100%,78.90625%,71.289063%);fill-opacity:1;" d="M 343.667969 304.066406 C 342.800781 304.242188 337.6875 303.128906 337.6875 303.128906 L 337.6875 307.308594 C 337.6875 307.308594 335.449219 308.757813 331.941406 307.511719 C 329.53125 306.652344 326.992188 306.1875 327.847656 308.203125 C 326.457031 308.355469 326.695313 309.242188 327.382813 310.015625 C 325.925781 310.015625 326.625 311.359375 327.070313 312.261719 C 326.550781 312.597656 326.550781 313.34375 327.070313 313.960938 C 329.039063 316.296875 332.6875 316.980469 335.132813 317.382813 C 336.757813 317.652344 338.417969 317.722656 339.695313 317.382813 C 343.308594 316.429688 343.855469 314.644531 346.503906 311.945313 C 349.152344 309.246094 347.429688 303.308594 343.667969 304.066406 "/>
<path style=" stroke:none;fill-rule:nonzero;fill:rgb(100%,78.90625%,71.289063%);fill-opacity:1;" d="M 261.308594 264.929688 C 261.308594 265.394531 261.308594 267.640625 261.308594 267.640625 C 261.308594 267.640625 262.59375 268.914063 264.488281 270.964844 C 265.632813 272.207031 265.425781 272.605469 264.953125 273.082031 C 264.695313 273.339844 263.765625 272.632813 263.765625 272.632813 C 263.765625 272.632813 264.847656 274.316406 264.59375 274.8125 C 264.238281 275.5 262.890625 274.523438 262.890625 274.523438 C 262.890625 274.523438 263.726563 275.554688 262.992188 276.175781 C 262.519531 276.574219 261.601563 275.453125 260.195313 274.515625 C 258.484375 273.371094 257.628906 269.984375 258.714844 267.640625 C 259.550781 265.84375 261.308594 264.929688 261.308594 264.929688 "/>
<path style=" stroke:none;fill-rule:nonzero;fill:rgb(16.868591%,9.423828%,13.330078%);fill-opacity:1;" d="M 277.539063 262.195313 L 280.308594 263.796875 L 283.425781 273.53125 L 284.597656 277.734375 L 284.667969 277.773438 C 284.558594 276.019531 284.339844 273.644531 284.339844 271.757813 L 284.339844 266.125 L 286.90625 267.605469 L 286.90625 283.570313 L 284.140625 281.972656 L 281.023438 272.214844 L 279.847656 268.0625 L 279.777344 268.015625 C 279.886719 269.84375 280.109375 272.101563 280.109375 273.988281 L 280.109375 279.644531 L 277.539063 278.164063 L 277.539063 262.195313 "/>
<path style=" stroke:none;fill-rule:nonzero;fill:rgb(16.868591%,9.423828%,13.330078%);fill-opacity:1;" d="M 289.738281 269.238281 L 297.21875 273.5625 L 297.21875 276.597656 L 292.433594 273.835938 L 292.433594 277.039063 L 296.503906 279.390625 L 296.503906 282.402344 L 292.433594 280.054688 L 292.433594 283.726563 L 297.40625 286.59375 L 297.40625 289.632813 L 289.738281 285.203125 L 289.738281 269.238281 "/>
<path style=" stroke:none;fill-rule:nonzero;fill:rgb(16.868591%,9.423828%,13.330078%);fill-opacity:1;" d="M 299.792969 275.046875 L 307.273438 279.363281 L 307.273438 282.402344 L 302.488281 279.636719 L 302.488281 282.847656 L 306.5625 285.195313 L 306.5625 288.210938 L 302.488281 285.859375 L 302.488281 289.53125 L 307.457031 292.398438 L 307.457031 295.433594 L 299.792969 291.011719 L 299.792969 275.046875 "/>
<path style=" stroke:none;fill-rule:nonzero;fill:rgb(16.868591%,9.423828%,13.330078%);fill-opacity:1;" d="M 313.054688 295.753906 C 315.09375 296.929688 316.449219 296.390625 316.449219 292.570313 C 316.449219 288.75 315.09375 286.792969 313.054688 285.617188 L 312.542969 285.320313 L 312.542969 295.460938 Z M 309.847656 280.851563 L 313.21875 282.800781 C 316.867188 284.90625 319.214844 288.683594 319.214844 294.167969 C 319.214844 299.652344 316.867188 300.867188 313.367188 298.847656 L 309.847656 296.8125 L 309.847656 280.851563 "/>
<path style=" stroke:none;fill-rule:nonzero;fill:rgb(16.868591%,9.423828%,13.330078%);fill-opacity:1;" d="M 281.90625 300.511719 L 283.738281 299.757813 C 284.175781 301.089844 284.804688 301.964844 285.410156 302.3125 C 286.378906 302.875 286.894531 302.511719 286.894531 300.378906 L 286.894531 290.023438 L 289.589844 291.578125 L 289.589844 302.230469 C 289.589844 305.316406 288.394531 307.148438 285.753906 305.621094 C 283.941406 304.574219 282.730469 302.921875 281.90625 300.511719 "/>
<path style=" stroke:none;fill-rule:nonzero;fill:rgb(16.868591%,9.423828%,13.330078%);fill-opacity:1;" d="M 299.878906 305.425781 C 299.878906 302.242188 298.851563 299.742188 297.21875 298.800781 C 295.589844 297.859375 294.5625 299.175781 294.5625 302.355469 C 294.5625 305.566406 295.589844 308.191406 297.21875 309.132813 C 298.851563 310.074219 299.878906 308.636719 299.878906 305.425781 Z M 291.792969 300.761719 C 291.792969 295.546875 293.992188 293.828125 297.21875 295.691406 C 300.445313 297.554688 302.648438 301.835938 302.648438 307.027344 C 302.648438 312.242188 300.445313 314.105469 297.21875 312.242188 C 293.992188 310.378906 291.792969 305.976563 291.792969 300.761719 "/>
<path style=" stroke:none;fill-rule:nonzero;fill:rgb(16.868591%,9.423828%,13.330078%);fill-opacity:1;" d="M 309.128906 316.035156 C 310.597656 316.882813 311.34375 316.628906 311.34375 315.15625 C 311.34375 313.761719 310.613281 312.777344 309.128906 311.921875 L 307.605469 311.039063 L 307.605469 315.15625 Z M 308.871094 309.101563 C 310.1875 309.863281 310.761719 309.457031 310.761719 308.304688 C 310.761719 307.058594 310.152344 306.242188 308.886719 305.511719 L 307.605469 304.773438 L 307.605469 308.371094 Z M 304.910156 300.425781 L 308.996094 302.785156 C 311.476563 304.214844 313.398438 306.230469 313.398438 309.292969 C 313.398438 310.714844 312.8125 311.914063 311.839844 311.847656 L 311.839844 311.941406 C 313.050781 313.058594 313.984375 314.800781 313.984375 316.925781 C 313.984375 320.183594 311.933594 320.445313 309.351563 318.953125 L 304.910156 316.390625 L 304.910156 300.425781 "/>
</g>
</svg>
